<svg width="308" height="19" viewBox="0 0 308 19" fill="none" xmlns="http://www.w3.org/2000/svg">
<path d="M147.972 14.098C147.066 14.098 146.24 13.888 145.494 13.468C144.747 13.0387 144.154 12.446 143.716 11.69C143.286 10.9247 143.072 10.066 143.072 9.114C143.072 8.162 143.286 7.308 143.716 6.552C144.154 5.78667 144.747 5.194 145.494 4.774C146.24 4.34467 147.066 4.13 147.972 4.13C148.886 4.13 149.717 4.34467 150.464 4.774C151.21 5.194 151.798 5.782 152.228 6.538C152.657 7.294 152.872 8.15267 152.872 9.114C152.872 10.0753 152.657 10.934 152.228 11.69C151.798 12.446 151.21 13.0387 150.464 13.468C149.717 13.888 148.886 14.098 147.972 14.098ZM147.972 12.992C148.653 12.992 149.264 12.8333 149.806 12.516C150.356 12.1987 150.786 11.746 151.094 11.158C151.411 10.57 151.57 9.88867 151.57 9.114C151.57 8.33 151.411 7.64867 151.094 7.07C150.786 6.482 150.361 6.02933 149.82 5.712C149.278 5.39467 148.662 5.236 147.972 5.236C147.281 5.236 146.665 5.39467 146.124 5.712C145.582 6.02933 145.153 6.482 144.836 7.07C144.528 7.64867 144.374 8.33 144.374 9.114C144.374 9.88867 144.528 10.57 144.836 11.158C145.153 11.746 145.582 12.1987 146.124 12.516C146.674 12.8333 147.29 12.992 147.972 12.992ZM160.07 4.242V5.278H155.828V8.568H159.272V9.604H155.828V14H154.554V4.242H160.07Z" fill="#D4D8E0"/>
<line x1="-4.37114e-08" y1="10.5" x2="126" y2="10.5" stroke="#D4D8E0"/>
<line x1="182" y1="10.5" x2="308" y2="10.5" stroke="#D4D8E0"/>
</svg>
